<?xml version="1.0" standalone="no"?>
<!DOCTYPE svg PUBLIC "-//W3C//DTD SVG 20010904//EN"
 "http://www.w3.org/TR/2001/REC-SVG-20010904/DTD/svg10.dtd">
<svg version="1.0" xmlns="http://www.w3.org/2000/svg"
 width="746.000000pt" height="184.000000pt" viewBox="0 0 746.000000 184.000000"
 preserveAspectRatio="xMidYMid meet">

<g transform="translate(0.000000,184.000000) scale(0.100000,-0.100000)"
fill="#0e8ee1" stroke="none">
<path d="M1793 1830 c-238 -48 -318 -349 -136 -510 138 -121 352 -79 451 88
24 41 27 57 27 132 0 77 -3 90 -31 140 -62 110 -193 173 -311 150z"/>
<path d="M3603 1574 c-43 -21 -78 -91 -69 -138 12 -62 75 -116 137 -116 66 0
129 67 129 136 0 102 -104 164 -197 118z"/>
<path d="M5473 1570 c-45 -27 -66 -64 -66 -115 0 -132 176 -183 244 -71 23 37
25 106 4 145 -29 57 -122 78 -182 41z"/>
<path d="M5827 1533 c-4 -3 -7 -262 -7 -574 l0 -568 43 -6 c23 -4 69 -5 102
-3 l60 3 3 135 c3 130 3 135 29 162 15 16 32 28 37 28 6 0 59 -67 119 -149 59
-82 114 -154 122 -161 17 -14 242 -22 250 -10 5 8 -13 33 -214 297 -67 89
-121 167 -119 173 1 5 74 84 161 174 86 91 157 169 157 175 0 7 -39 11 -113
11 l-112 0 -150 -150 c-82 -82 -153 -150 -157 -150 -4 0 -9 138 -10 308 l-3
307 -96 3 c-52 1 -99 -1 -102 -5z"/>
<path d="M161 1515 c-62 -18 -137 -57 -134 -71 1 -5 72 -114 158 -241 l156
-233 352 0 c341 0 457 -5 457 -20 0 -4 -23 -35 -51 -70 -206 -257 -339 -561
-339 -776 l0 -54 406 0 407 0 -6 84 c-18 228 -152 505 -382 791 -136 169 -211
249 -326 348 -198 171 -359 246 -544 253 -70 3 -116 -1 -154 -11z"/>
<path d="M4886 1403 c-4 -10 -7 -51 -6 -93 1 -41 1 -81 1 -87 -1 -9 -18 -13
-51 -13 l-50 0 0 -85 0 -85 49 0 49 0 4 -242 c3 -164 9 -254 18 -278 36 -99
108 -144 230 -144 77 0 163 18 178 38 6 7 1 37 -12 76 l-21 65 -65 -3 c-55 -3
-68 0 -87 17 -31 29 -34 60 -31 276 l3 190 95 5 95 5 3 82 3 82 -93 3 -93 3
-5 100 -5 100 -101 3 c-89 2 -102 1 -108 -15z"/>
<path d="M4118 1215 c-32 -8 -80 -26 -108 -40 -43 -22 -50 -29 -45 -46 12 -37
56 -129 62 -129 4 0 41 12 82 26 100 35 216 38 276 7 43 -23 75 -67 75 -105 0
-23 -1 -23 -86 -19 -205 8 -375 -67 -421 -187 -38 -101 -13 -224 58 -285 50
-43 97 -57 193 -57 88 0 159 23 217 70 21 16 40 30 43 30 3 0 6 -19 8 -43 l3
-42 75 -6 c129 -9 120 -27 120 238 0 284 -10 377 -47 444 -33 61 -70 94 -143
128 -48 22 -70 25 -180 28 -84 2 -144 -2 -182 -12z m347 -466 c10 -31 -3 -100
-25 -137 -53 -86 -265 -112 -294 -37 -10 28 -7 75 8 103 34 66 94 91 218 92
79 0 87 -2 93 -21z"/>
<path d="M6840 1212 c-84 -22 -136 -53 -133 -78 1 -10 13 -45 27 -76 l25 -57
73 26 c97 35 235 39 287 8 41 -24 69 -60 77 -100 l6 -30 -119 -1 c-137 0 -230
-23 -309 -76 -141 -95 -141 -325 0 -412 42 -27 59 -31 141 -34 110 -5 172 12
241 64 24 19 46 34 49 34 2 0 5 -19 7 -43 l3 -42 93 -3 93 -3 -3 308 -3 308
-28 57 c-32 66 -84 111 -160 140 -75 30 -276 35 -367 10z m338 -442 c20 0 22
-5 22 -57 0 -83 -23 -122 -89 -155 -94 -48 -216 -31 -236 32 -17 54 19 126 78
157 38 19 120 33 167 27 19 -2 45 -4 58 -4z"/>
<path d="M2540 1209 c0 -7 38 -102 84 -213 46 -111 118 -286 160 -391 42 -104
80 -196 85 -203 6 -9 41 -16 108 -19 90 -5 102 -4 119 13 11 11 46 85 78 164
32 80 104 259 161 397 56 139 100 255 97 258 -3 3 -49 5 -103 5 -83 0 -100 -3
-108 -17 -5 -10 -52 -130 -104 -268 -53 -137 -101 -263 -108 -280 l-11 -30
-19 40 c-10 22 -62 150 -115 285 -53 135 -101 251 -107 258 -13 16 -217 17
-217 1z"/>
<path d="M3567 1203 c-4 -3 -7 -187 -7 -408 l0 -402 38 -7 c48 -8 136 -8 156
0 14 5 16 51 16 415 l0 409 -98 0 c-54 0 -102 -3 -105 -7z"/>
<path d="M5437 1203 c-9 -8 -7 -652 2 -748 l6 -70 95 0 95 0 3 413 2 412 -98
0 c-54 0 -102 -3 -105 -7z"/>
</g>
</svg>
