<?xml version="1.0" encoding="UTF-8"?>
<svg version="1.1" xmlns="http://www.w3.org/2000/svg" width="135" height="64">
<path d="M0 0 C1.125 1.5625 1.125 1.5625 1.125 4.5625 C2.3934375 4.3459375 2.3934375 4.3459375 3.6875 4.125 C8.14456054 4.69226225 9.70283769 6.46126083 12.8046875 9.54296875 C14.49592364 12.12985954 14.63724824 13.52767083 14.125 16.5625 C10.27078452 20.91899356 3.66927274 24.77997329 -1.875 26.5625 C-4.875 25.5625 -4.875 25.5625 -6.078125 23.19921875 C-6.42359375 22.22597656 -6.7690625 21.25273438 -7.125 20.25 C-7.65867187 18.80173828 -7.65867187 18.80173828 -8.203125 17.32421875 C-8.88046613 14.54003166 -8.85517307 13.20771065 -7.875 10.5625 C-8.57625 10.376875 -9.2775 10.19125 -10 10 C-13.88713956 8.05643022 -16.59843201 5.27072414 -18.875 1.5625 C-18.875 0.2425 -18.875 -1.0775 -18.875 -2.4375 C-5.47991219 -4.20126601 -5.47991219 -4.20126601 0 0 Z " fill="#A60F22" transform="translate(18.875,12.4375)"/>
<path d="M0 0 C0.99 0 1.98 0 3 0 C5.33333333 0.33333333 7.66666667 0.66666667 10 1 C12.9254644 1.2236068 12.9254644 1.2236068 15 0 C17.9375 -0.3125 17.9375 -0.3125 21 0 C24.34016059 3.22987227 24.4061263 6.18292857 24.5625 10.6875 C24.63987177 12.79529466 24.76900193 14.9034732 25 17 C25.66 17.33 26.32 17.66 27 18 C27 18.99 27 19.98 27 21 C24.36 21 21.72 21 19 21 C18.67 15.72 18.34 10.44 18 5 C16.68 5.33 15.36 5.66 14 6 C12.79727181 8.40545638 12.89928528 9.94996953 12.9375 12.625 C12.94652344 13.44226562 12.95554687 14.25953125 12.96484375 15.1015625 C12.97644531 15.72804688 12.98804687 16.35453125 13 17 C13.66 17.33 14.32 17.66 15 18 C15 18.99 15 19.98 15 21 C12.36 21 9.72 21 7 21 C6.67 15.72 6.34 10.44 6 5 C2.25724788 5.57125354 2.25724788 5.57125354 1 7 C0.92794489 8.68608966 0.91613932 10.37500659 0.9375 12.0625 C0.95103516 13.44115234 0.95103516 13.44115234 0.96484375 14.84765625 C0.97644531 15.55792969 0.98804687 16.26820312 1 17 C1.66 17.33 2.32 17.66 3 18 C3 18.99 3 19.98 3 21 C-0.63 21 -4.26 21 -8 21 C-7.67 19.68 -7.34 18.36 -7 17 C-6.34 17 -5.68 17 -5 17 C-5 12.71 -5 8.42 -5 4 C-5.99 4 -6.98 4 -8 4 C-8 3.01 -8 2.02 -8 1 C-5.03549787 0.01183262 -3.08189674 -0.07704742 0 0 Z " fill="#565655" transform="translate(82,38)"/>
<path d="M0 0 C0.77085938 -0.03738281 1.54171875 -0.07476562 2.3359375 -0.11328125 C5.60434083 0.49466408 6.69688969 1.62972208 8.625 4.3125 C9.015625 7.546875 9.015625 7.546875 8.875 11.0625 C8.83890625 12.23296875 8.8028125 13.4034375 8.765625 14.609375 C8.69601563 15.94742188 8.69601563 15.94742188 8.625 17.3125 C9.615 17.6425 10.605 17.9725 11.625 18.3125 C11.625 19.3025 11.625 20.2925 11.625 21.3125 C8.625 21.3125 5.625 21.3125 2.625 21.3125 C2.00625 21.33570312 1.3875 21.35890625 0.75 21.3828125 C0.04875 21.40085937 -0.6525 21.41890625 -1.375 21.4375 C-2.426875 21.47230469 -2.426875 21.47230469 -3.5 21.5078125 C-5.375 21.3125 -5.375 21.3125 -7.375 19.3125 C-7.93479644 14.05041349 -7.93479644 14.05041349 -6 11.5 C-2.72928264 9.10986039 -0.37166044 9.22561608 3.625 9.3125 C3.295 7.9925 2.965 6.6725 2.625 5.3125 C0.975 4.9825 -0.675 4.6525 -2.375 4.3125 C-2.705 5.6325 -3.035 6.9525 -3.375 8.3125 C-4.365 8.3125 -5.355 8.3125 -6.375 8.3125 C-6.375 6.0025 -6.375 3.6925 -6.375 1.3125 C-4.07513269 0.16256634 -2.56030912 0.0808071 0 0 Z M-3.375 14.3125 C-2.715 15.6325 -2.055 16.9525 -1.375 18.3125 C1.18003957 17.02961243 1.18003957 17.02961243 3.625 15.3125 C3.625 14.3225 3.625 13.3325 3.625 12.3125 C0.51948334 12.3125 -0.72761084 12.8518715 -3.375 14.3125 Z " fill="#565655" transform="translate(118.375,37.6875)"/>
<path d="M0 0 C0.78375 0.04125 1.5675 0.0825 2.375 0.125 C3.035 1.775 3.695 3.425 4.375 5.125 C5.365 4.795 6.355 4.465 7.375 4.125 C9.34765625 5.48828125 9.34765625 5.48828125 11.4375 7.4375 C12.47583984 8.39076172 12.47583984 8.39076172 13.53515625 9.36328125 C14.8293294 10.60250012 16.10800601 11.85800601 17.375 13.125 C17.38671875 15 17.38671875 15 17.0625 17.125 C16.96324219 17.82625 16.86398438 18.5275 16.76171875 19.25 C16.375 21.125 16.375 21.125 15.375 23.125 C10.81548455 22.66267151 9.05403614 21.20447392 6.125 17.75 C5.43921875 16.95851563 4.7534375 16.16703125 4.046875 15.3515625 C2.375 13.125 2.375 13.125 1.375 10.125 C-0.0790625 10.1559375 -0.0790625 10.1559375 -1.5625 10.1875 C-4.625 10.125 -4.625 10.125 -5.625 9.125 C-4.81630435 0.22934783 -4.81630435 0.22934783 0 0 Z M2.375 6.125 C3.375 8.125 3.375 8.125 3.375 8.125 Z " fill="#A60F22" transform="translate(21.625,0.875)"/>
<path d="M0 0 C2.375 1 2.375 1 4 3 C4.62925165 5.70364905 4.8170661 8.21025799 5 11 C0.71 11 -3.58 11 -8 11 C-7.34 12.65 -6.68 14.3 -6 16 C-2.7 16 0.6 16 4 16 C3.67 17.65 3.34 19.3 3 21 C-6.88015082 21.61325074 -6.88015082 21.61325074 -10.625 19.5625 C-12.6534255 15.78225248 -13.20006077 12.27537272 -13 8 C-10.46389257 1.02570458 -7.31056216 -0.64127738 0 0 Z M-6 4 C-6.33 4.99 -6.66 5.98 -7 7 C-4.69 7 -2.38 7 0 7 C-0.66 6.01 -1.32 5.02 -2 4 C-3.32 4 -4.64 4 -6 4 Z " fill="#565655" transform="translate(67,38)"/>
<path d="M0 0 C0 2.31 0 4.62 0 7 C1.65 7 3.3 7 5 7 C5 8.32 5 9.64 5 11 C3.35 11 1.7 11 0 11 C0 15.29 0 19.58 0 24 C1.65 24 3.3 24 5 24 C5 25.32 5 26.64 5 28 C3.72125 28.061875 2.4425 28.12375 1.125 28.1875 C0.04605469 28.23970703 0.04605469 28.23970703 -1.0546875 28.29296875 C-1.69664063 28.19628906 -2.33859375 28.09960938 -3 28 C-5.49118953 24.2632157 -5.2065226 22.25548181 -5.125 17.8125 C-5.10695312 16.54019531 -5.08890625 15.26789062 -5.0703125 13.95703125 C-5.04710937 12.98121094 -5.02390625 12.00539063 -5 11 C-6.32 11 -7.64 11 -9 11 C-9 9.68 -9 8.36 -9 7 C-7.68 7 -6.36 7 -5 7 C-5 5.02 -5 3.04 -5 1 C-2 0 -2 0 0 0 Z " fill="#565655" transform="translate(47,31)"/>
<path d="M0 0 C1.0625 1.625 1.0625 1.625 1.1875 3.5625 C-0.57708269 6.79756827 -3.57049671 8.37894366 -6.9375 9.625 C-9.43359375 9.96875 -9.43359375 9.96875 -11.9375 9.625 C-13.95703125 8.015625 -13.95703125 8.015625 -15.75 5.875 C-16.35457031 5.17890625 -16.95914062 4.4828125 -17.58203125 3.765625 C-18.9375 1.625 -18.9375 1.625 -18.9375 -2.375 C-5.78659265 -4.10661414 -5.78659265 -4.10661414 0 0 Z " fill="#D90811" transform="translate(18.9375,12.375)"/>
<path d="M0 0 C2.4375 0.1875 2.4375 0.1875 3.4375 1.1875 C3.3515625 3 3.3515625 3 3.0625 5.1875 C2.97226562 5.909375 2.88203125 6.63125 2.7890625 7.375 C2.4375 9.1875 2.4375 9.1875 1.4375 10.1875 C-1.5625 10.3125 -1.5625 10.3125 -4.5625 10.1875 C-4.8925 9.8575 -5.2225 9.5275 -5.5625 9.1875 C-4.75892857 0.34821429 -4.75892857 0.34821429 0 0 Z " fill="#5E2622" transform="translate(21.5625,0.8125)"/>
</svg>
